<svg width="88" height="76" viewBox="0 0 88 76" fill="none" xmlns="http://www.w3.org/2000/svg">
<g clip-path="url(#clip0_113_640)">
<path d="M87.33 0H0V75.33H87.33V0Z" fill="white"/>
<path d="M54.057 63.98H36.026L34.609 61.834C34.4333 61.5041 34.1751 61.2253 33.8597 61.0248C33.5442 60.8243 33.1823 60.709 32.809 60.69C32.5557 60.6859 32.3024 60.6996 32.051 60.731V62.05C32.1752 62.0366 32.3001 62.0312 32.425 62.034C32.6349 62.0358 32.841 62.0906 33.024 62.1934C33.2071 62.2962 33.3612 62.4436 33.472 62.622L34.402 63.98H19.402V63.651C19.3816 63.4362 19.4126 63.2196 19.4924 63.0191C19.5722 62.8186 19.6985 62.64 19.861 62.498C20.3374 62.2229 20.8869 62.101 21.435 62.149C22.7512 62.1521 24.0577 62.3741 25.301 62.806V61.373L24.814 61.187C24.3296 61.0365 23.835 60.9212 23.334 60.842C22.6693 60.7287 21.9962 60.6718 21.322 60.672C20.4065 60.6168 19.4988 60.868 18.742 61.386C18.4219 61.6587 18.1712 62.0036 18.0106 62.3921C17.8499 62.7807 17.7839 63.2019 17.818 63.621V63.979H16.522V65.327H17.767V73.469H19.367V65.329H23.861C23.963 65.5781 24.0114 65.8459 24.003 66.115V67.774C24.003 68.274 23.736 68.516 23.203 68.516C22.9312 68.5175 22.6611 68.475 22.403 68.39V67.014H20.813V71.149C20.7973 71.4753 20.8536 71.801 20.9778 72.103C21.1021 72.4051 21.2913 72.6762 21.532 72.897C22.0937 73.3561 22.8079 73.5864 23.532 73.542C24.2581 73.5598 24.9824 73.4622 25.678 73.253V71.762C25.0875 71.9808 24.4627 72.0923 23.833 72.091C22.88 72.091 22.4 71.762 22.4 71.105V69.786C22.7295 69.8815 23.072 69.925 23.415 69.915C23.7061 69.9605 24.0039 69.9376 24.2847 69.8482C24.5655 69.7588 24.8216 69.6053 25.0329 69.3999C25.2442 69.1944 25.4047 68.9427 25.502 68.6645C25.5992 68.3863 25.6303 68.0893 25.593 67.797V66.109C25.6031 65.844 25.5731 65.579 25.504 65.323H28.442C28.5094 65.5795 28.543 65.8438 28.542 66.109V66.909C28.5609 67.0478 28.545 67.1892 28.4956 67.3203C28.4462 67.4514 28.3648 67.5682 28.259 67.66C27.9203 67.8202 27.5452 67.8875 27.172 67.855H26.843V69.672C26.8195 70.0379 26.8856 70.404 27.0357 70.7386C27.1857 71.0732 27.4151 71.3661 27.704 71.592C28.3699 72.0508 29.1683 72.2774 29.976 72.237C30.4238 72.2468 30.8711 72.1974 31.306 72.09V73.462H32.906V65.325H34.422V73.467H36.022V65.325H42.691V66.497H38.11V67.962H39.583C39.6878 68.2103 39.7373 68.4786 39.728 68.748V70.48C39.728 71.068 39.37 71.364 38.653 71.364C38.2427 71.3606 37.8342 71.3089 37.436 71.21V72.655C37.8517 72.7627 38.2796 72.8158 38.709 72.813C39.4053 72.8579 40.0946 72.6517 40.652 72.232C40.8855 72.0152 41.0676 71.749 41.1849 71.4528C41.3022 71.1566 41.3518 70.8379 41.33 70.52V68.662C41.343 68.3938 41.299 68.1259 41.201 67.876H42.69V73.47H44.28V65.33H51.206V66.502H47.792C46.3113 66.502 45.5716 67.208 45.573 68.62V70.562C45.573 71.9733 46.3126 72.6793 47.792 72.68C48.0931 72.7067 48.3965 72.6727 48.6843 72.58C48.972 72.4872 49.2382 72.3376 49.467 72.14C49.655 71.925 49.7986 71.6748 49.8892 71.4039C49.9798 71.133 50.0158 70.8469 49.995 70.562V68.846C49.9842 68.5508 49.9463 68.2572 49.882 67.969H51.212V73.469H52.802V65.327H54.332V73.469H55.932V65.327H57.173V63.979L54.057 63.98ZM31.302 70.622C30.8902 70.7199 30.4682 70.7676 30.045 70.764C28.945 70.764 28.398 70.334 28.398 69.478V68.934C28.6297 68.9568 28.8635 68.9274 29.0823 68.8479C29.3012 68.7685 29.4994 68.641 29.6625 68.4748C29.8256 68.3087 29.9493 68.1081 30.0247 67.8878C30.1001 67.6676 30.1251 67.4332 30.098 67.202V66.115C30.1073 65.8493 30.0735 65.5839 29.998 65.329H31.298L31.302 70.622ZM48.491 70.549C48.5073 70.7385 48.4536 70.9274 48.34 71.08C48.2646 71.1451 48.1766 71.1939 48.0814 71.2232C47.9862 71.2524 47.8859 71.2615 47.787 71.25C47.6894 71.2622 47.5904 71.2533 47.4965 71.224C47.4027 71.1947 47.3162 71.1456 47.243 71.08C47.1339 70.9255 47.0826 70.7375 47.098 70.549V68.662C47.0839 68.4773 47.1352 68.2936 47.243 68.143C47.3162 68.0774 47.4027 68.0282 47.4965 67.9989C47.5904 67.9696 47.6894 67.9607 47.787 67.973H48.359C48.46 68.2731 48.5038 68.5897 48.488 68.906V70.548L48.491 70.549Z" fill="#0054A6"/>
<path d="M35.19 20.081C35.3389 20.081 35.4817 20.0219 35.587 19.9165C35.6923 19.8112 35.7515 19.6684 35.7515 19.5195C35.7515 19.3706 35.6923 19.2278 35.587 19.1225C35.4817 19.0172 35.3389 18.958 35.19 18.958C35.0411 18.958 34.8982 19.0172 34.7929 19.1225C34.6876 19.2278 34.6285 19.3706 34.6285 19.5195C34.6285 19.6684 34.6876 19.8112 34.7929 19.9165C34.8982 20.0219 35.0411 20.081 35.19 20.081Z" fill="#026839"/>
<path d="M41.906 20.656V19.893C41.906 19.0077 41.4153 18.565 40.434 18.565C39.4526 18.565 38.9616 19.0077 38.961 19.893V20.145H39.961V19.902C39.961 19.615 40.119 19.47 40.432 19.47C40.745 19.47 40.903 19.615 40.903 19.902V20.655H21.668V25.073C21.4136 25.1433 21.1509 25.179 20.887 25.179C20.342 25.179 20.071 24.979 20.071 24.579V24.245C20.066 24.1845 20.0732 24.1236 20.0921 24.0659C20.111 24.0082 20.1412 23.9549 20.181 23.909C20.2915 23.8217 20.432 23.7814 20.572 23.797H20.976V22.871H20.617C20.4773 22.8865 20.3371 22.8463 20.227 22.759C20.1524 22.6637 20.1167 22.5436 20.127 22.423V21.993C20.1123 21.8191 20.1559 21.6453 20.251 21.499H20.897V20.654H14.376V21.5H15.122V23.609C15.082 23.8961 15.1527 24.1876 15.3199 24.4244C15.4871 24.6612 15.7381 24.8256 16.022 24.884L14.836 26.607H15.956L17.178 24.838H17.185V26.607H18.185V21.5H19.217C19.1511 21.6561 19.1197 21.8246 19.125 21.994V22.46C19.1054 22.6252 19.1324 22.7926 19.2031 22.9432C19.2738 23.0938 19.3853 23.2216 19.525 23.312C19.3672 23.3982 19.2395 23.5307 19.159 23.6915C19.0786 23.8524 19.0493 24.034 19.075 24.212V24.688C19.0641 24.8814 19.0978 25.0748 19.1734 25.2532C19.249 25.4316 19.3645 25.5902 19.511 25.717C19.8733 25.9825 20.3177 26.1118 20.766 26.082C21.0718 26.0899 21.3772 26.0542 21.673 25.976V26.612H22.676V21.503H23.627V26.612H24.633V21.503H28.97V22.238H26.824C25.894 22.238 25.432 22.681 25.432 23.566V24.788C25.432 25.6733 25.896 26.116 26.824 26.116C27.013 26.1328 27.2035 26.1116 27.3842 26.0535C27.5649 25.9955 27.7321 25.9018 27.876 25.778C27.9941 25.6432 28.0841 25.4862 28.141 25.3163C28.1978 25.1463 28.2202 24.9667 28.207 24.788V23.711C28.2002 23.5262 28.1765 23.3424 28.136 23.162H28.97V26.61H29.97V21.503H32.897V22.661H32.431C31.4783 22.661 31.0026 23.0767 31.004 23.908V24.832C31.004 25.6767 31.4796 26.0993 32.431 26.1C33.3823 26.1007 33.858 25.678 33.858 24.832V23.513H34.71V26.613H35.687V21.506H38.958V22.259C38.6795 22.1832 38.3916 22.1475 38.103 22.153C37.0083 22.153 36.461 22.653 36.461 23.653V24.264H37.421V23.717C37.4134 23.6278 37.4262 23.5381 37.4584 23.4546C37.4906 23.3711 37.5414 23.296 37.607 23.235C37.7787 23.1156 37.9866 23.0598 38.195 23.077C38.4531 23.0754 38.7101 23.1111 38.958 23.183V23.759L36.443 26.452H37.7L38.426 25.645C38.6808 25.3901 38.8931 25.096 39.055 24.774H39.076C39.0216 25.179 38.9979 25.5875 39.005 25.996V26.614H39.947V21.507H40.898V26.616H41.904V21.507H42.685V20.662L41.906 20.656ZM17.184 24.012C17.0224 24.0809 16.8474 24.1124 16.672 24.104C16.3 24.104 16.114 23.9483 16.114 23.637V21.501H17.184V24.012ZM27.262 24.775C27.2723 24.8937 27.2388 25.0122 27.168 25.108C27.1208 25.1484 27.0659 25.1787 27.0065 25.1969C26.9472 25.2152 26.8847 25.221 26.823 25.214C26.7617 25.2217 26.6995 25.2163 26.6405 25.198C26.5815 25.1797 26.5271 25.149 26.481 25.108C26.4123 25.0112 26.3798 24.8933 26.389 24.775V23.592C26.3802 23.4759 26.4128 23.3604 26.481 23.266C26.5271 23.225 26.5815 23.1943 26.6405 23.176C26.6995 23.1577 26.7617 23.1523 26.823 23.16H27.182C27.2455 23.3485 27.2729 23.5473 27.263 23.746L27.262 24.775ZM32.891 24.794C32.9039 24.8569 32.9006 24.922 32.8813 24.9832C32.8619 25.0444 32.8273 25.0996 32.7805 25.1436C32.7338 25.1876 32.6766 25.2189 32.6144 25.2346C32.5522 25.2502 32.4869 25.2497 32.425 25.233C32.3587 25.2412 32.2915 25.236 32.2272 25.2178C32.163 25.1996 32.1031 25.1687 32.051 25.127C31.9801 25.0312 31.9467 24.9128 31.957 24.794V23.945C31.9458 23.8277 31.9794 23.7106 32.051 23.617C32.1579 23.5364 32.2921 23.5005 32.425 23.517H32.891V24.794ZM34.706 22.658H33.854V21.5H34.706V22.658Z" fill="#026839"/>
<path d="M35.826 31.416H34.598V30.216C34.598 28.816 33.824 28.116 32.276 28.116C30.728 28.116 29.953 28.816 29.951 30.216V30.616H31.525V30.235C31.525 29.782 31.775 29.553 32.269 29.553C32.763 29.553 33.011 29.781 33.011 30.235V31.423H19.278V32.756H23.459C23.5595 33.003 23.6072 33.2684 23.599 33.535V35.165C23.599 35.6556 23.3323 35.9006 22.799 35.9C22.5301 35.901 22.2627 35.8592 22.007 35.776V34.414H20.438V38.506C20.4229 38.8287 20.4786 39.1508 20.6013 39.4496C20.724 39.7485 20.9106 40.0169 21.148 40.236C21.7048 40.6913 22.4131 40.9196 23.131 40.875C23.85 40.8929 24.5672 40.7967 25.256 40.59V39.117C24.6712 39.3333 24.0525 39.4436 23.429 39.443C22.485 39.443 22.0127 39.1176 22.012 38.467V37.165C22.3366 37.2599 22.674 37.3035 23.012 37.294C23.3006 37.3395 23.5959 37.3171 23.8744 37.2285C24.1529 37.14 24.4069 36.9878 24.6162 36.784C24.8256 36.5801 24.9846 36.3303 25.0805 36.0543C25.1765 35.7783 25.2068 35.4837 25.169 35.194V33.524C25.1791 33.2613 25.1491 32.9986 25.08 32.745H29.911V33.865C29.5455 33.7782 29.1707 33.7366 28.795 33.741C28.4745 33.7152 28.1521 33.7551 27.8476 33.8583C27.5431 33.9614 27.2628 34.1257 27.024 34.341C26.8221 34.5619 26.6665 34.821 26.5664 35.103C26.4663 35.385 26.4236 35.6842 26.441 35.983V38.802C26.3924 39.086 26.4137 39.3776 26.5032 39.6515C26.5926 39.9255 26.7473 40.1735 26.9541 40.3742C27.1609 40.5749 27.4135 40.7222 27.69 40.8033C27.9665 40.8845 28.2586 40.897 28.541 40.84H28.911V39.354C28.67 39.3765 28.428 39.3218 28.22 39.198C28.1476 39.1297 28.0919 39.0456 28.0572 38.9523C28.0225 38.859 28.0098 38.759 28.02 38.66V36.025C28.02 35.474 28.346 35.202 28.996 35.202C29.3061 35.1961 29.6154 35.2338 29.915 35.314V40.814H31.505V32.755H33.005V40.814H34.598V32.755H37.49C37.5567 33.0093 37.5903 33.2711 37.59 33.534V34.326C37.609 34.4634 37.5931 34.6034 37.5439 34.733C37.4946 34.8627 37.4135 34.9779 37.308 35.068C36.9727 35.2273 36.6008 35.2939 36.231 35.261H35.898V37.061C35.8748 37.4231 35.9403 37.7854 36.0888 38.1165C36.2372 38.4476 36.4642 38.7374 36.75 38.961C37.4093 39.4149 38.1995 39.6395 38.999 39.6C39.4425 39.6102 39.8854 39.5614 40.316 39.455V40.817H41.903V32.758H43.135V31.425L35.826 31.416ZM40.315 37.989C39.9071 38.0852 39.4891 38.1322 39.07 38.129C37.9827 38.129 37.439 37.7046 37.439 36.856V36.318C37.6686 36.3411 37.9004 36.3124 38.1174 36.234C38.3344 36.1556 38.531 36.0295 38.6928 35.8651C38.8546 35.7006 38.9774 35.5019 39.0522 35.2836C39.127 35.0654 39.1519 34.8331 39.125 34.604V33.527C39.1342 33.2636 39.1005 33.0005 39.025 32.748H40.314V37.99L40.315 37.989Z" fill="#0054A6"/>
<path d="M63.606 45.778V54.437C63.1078 54.5757 62.5931 54.6461 62.076 54.646C61.0093 54.646 60.476 54.254 60.476 53.47V52.817C60.4664 52.6985 60.4803 52.5792 60.517 52.4661C60.5538 52.353 60.6126 52.2483 60.69 52.158C60.9071 51.9864 61.183 51.9074 61.458 51.938H62.251V50.123H61.551C61.4156 50.1386 61.2784 50.1272 61.1475 50.0894C61.0165 50.0516 60.8943 49.9883 60.788 49.903C60.6404 49.7165 60.5689 49.4811 60.588 49.244V48.401C60.558 48.0604 60.644 47.7196 60.832 47.434H62.098V45.778H57.405V44.303C57.405 43.74 57.715 43.455 58.328 43.455C58.941 43.455 59.251 43.74 59.251 44.303V44.776H61.206V44.282C61.206 42.5487 60.244 41.682 58.32 41.682C56.396 41.682 55.4357 42.5487 55.439 44.282V45.782H45.539L44.781 43.319C44.6959 42.8672 44.4531 42.4604 44.096 42.1708C43.7389 41.8813 43.2906 41.7279 42.831 41.738C42.6422 41.7368 42.4537 41.7536 42.268 41.788V43.422C42.3856 43.4098 42.5038 43.4052 42.622 43.408C42.6956 43.4049 42.769 43.418 42.837 43.4465C42.9049 43.475 42.9657 43.5182 43.015 43.573C43.1468 43.7513 43.2447 43.9523 43.304 44.166L43.848 45.781H43.499L41.699 43.268C41.477 42.8563 41.1606 42.503 40.7758 42.237C40.391 41.9711 39.9486 41.8001 39.485 41.738C39.1842 41.7331 38.8834 41.7498 38.585 41.788V43.408C38.7355 43.392 38.8867 43.3854 39.038 43.388C39.2945 43.3971 39.5451 43.4674 39.7689 43.5932C39.9926 43.719 40.183 43.8965 40.324 44.111L41.555 45.781H39.814V52.009H38.125C38.079 51.8172 37.9941 51.6368 37.8756 51.479C37.7571 51.3213 37.6075 51.1896 37.436 51.092C37.7374 50.8807 37.9742 50.5899 38.1202 50.252C38.2662 49.9141 38.3157 49.5423 38.263 49.178V48.478C38.263 46.624 37.1497 45.6967 34.923 45.696C34.3573 45.6778 33.7927 45.7556 33.253 45.926V47.741C33.7663 47.5736 34.3031 47.4892 34.843 47.491C35.2486 47.4528 35.6557 47.5453 36.005 47.755C36.1164 47.8534 36.2035 47.9761 36.2597 48.1136C36.3159 48.2512 36.3396 48.3998 36.329 48.548V49.182C36.3405 49.3174 36.3248 49.4538 36.2829 49.5831C36.241 49.7124 36.1738 49.832 36.085 49.935C35.834 50.1284 35.5182 50.2179 35.203 50.185H34.151V51.995H35.206C35.5254 51.9732 35.841 52.0745 36.088 52.278C36.2654 52.4945 36.3528 52.7709 36.332 53.05V53.983C36.332 54.683 35.854 55.04 34.891 55.04C34.2609 55.0409 33.6336 54.9568 33.026 54.79V56.59C33.6369 56.7638 34.2699 56.848 34.905 56.84C37.1237 56.84 38.244 55.9127 38.266 54.058V53.709H39.817V57.437H41.767V47.437H43.651V57.437H45.62V47.437H47.306V52.852C47.306 54.5767 48.245 55.439 50.123 55.439C50.6571 55.4424 51.189 55.3704 51.703 55.225V57.437H53.658V47.437H55.427V57.437H57.396V47.437H58.806C58.6765 47.7424 58.6154 48.0725 58.627 48.404V49.316C58.5878 49.6391 58.6397 49.9668 58.7771 50.2619C58.9144 50.5571 59.1315 50.8079 59.404 50.986C59.0955 51.1549 58.8458 51.4139 58.6883 51.7283C58.5307 52.0428 58.4727 52.3978 58.522 52.746V53.677C58.5003 54.0554 58.5659 54.4337 58.7136 54.7827C58.8613 55.1317 59.0873 55.4421 59.374 55.69C60.0838 56.2098 60.9542 56.4626 61.832 56.404C62.4303 56.4199 63.0278 56.3495 63.606 56.195V57.437H65.575V47.437H67.105V45.781H63.605L63.606 45.778ZM51.706 53.465C51.3034 53.5976 50.8829 53.668 50.459 53.674C49.659 53.674 49.259 53.374 49.259 52.774V50.137L51.703 52.315L51.706 53.465ZM51.706 50.865L49.262 48.665V47.437H51.706V50.865Z" fill="#0054A6"/>
<path d="M17.811 47.434H25.973V48.875H21.773C19.9523 48.875 19.0433 49.7416 19.046 51.475V53.87C19.046 55.6033 19.955 56.47 21.773 56.47C22.143 56.5026 22.5158 56.4609 22.8694 56.3472C23.223 56.2335 23.5503 56.0502 23.832 55.808C24.063 55.5438 24.2393 55.2363 24.3505 54.9035C24.4617 54.5706 24.5057 54.219 24.48 53.869V51.76C24.4674 51.3974 24.4205 51.0368 24.34 50.683H25.976V57.439H27.931V47.436H29.477V45.78H17.811V47.434ZM22.633 53.85C22.6523 54.0827 22.587 54.3146 22.449 54.503C22.3567 54.583 22.2487 54.6429 22.132 54.6788C22.0152 54.7148 21.8923 54.7261 21.771 54.712C21.6511 54.7274 21.5294 54.7167 21.4141 54.6807C21.2988 54.6446 21.1926 54.584 21.103 54.503C20.9684 54.3131 20.905 54.0819 20.924 53.85V51.532C20.9077 51.3053 20.971 51.08 21.103 50.895C21.1927 50.8142 21.2989 50.7537 21.4142 50.7176C21.5294 50.6815 21.6512 50.6707 21.771 50.686H22.471C22.5954 51.055 22.6493 51.4441 22.63 51.833L22.633 53.85Z" fill="#0054A6"/>
<path d="M16.369 29.205H12.829V33.523H11.104V31.763C11.104 29.9937 10.1523 29.1093 8.24899 29.11C6.34565 29.1107 5.39199 29.996 5.38799 31.766C5.39238 32.0231 5.41611 32.2795 5.45898 32.533H7.45099L7.37998 31.833C7.35949 31.5947 7.4201 31.3565 7.55198 31.157C7.64491 31.0737 7.75485 31.0116 7.87416 30.975C7.99348 30.9384 8.11932 30.9281 8.24299 30.945C8.36804 30.9282 8.49524 30.9384 8.61599 30.975C8.73675 31.0116 8.84826 31.0736 8.94299 31.157C9.07004 31.3584 9.12828 31.5956 9.10898 31.833V33.523H8.18798C6.30198 33.523 5.35932 34.3533 5.35999 36.014V37.491C5.35999 39.1503 6.30632 39.981 8.19898 39.983C10.0916 39.985 11.036 39.1543 11.032 37.491V35.212H12.832V40.995H14.824V30.88H16.71V40.998H18.702V30.88H20.25V29.207H16.369V29.205ZM9.10898 37.423C9.13053 37.6538 9.0641 37.8841 8.92299 38.068C8.81992 38.1495 8.70171 38.2098 8.57521 38.2453C8.44871 38.2808 8.31642 38.2909 8.18599 38.275C8.0568 38.2925 7.92538 38.2825 7.80029 38.2458C7.6752 38.2091 7.55925 38.1465 7.45998 38.062C7.32549 37.8766 7.26133 37.6494 7.27898 37.421V36.07C7.26211 35.8404 7.32615 35.6122 7.45998 35.425C7.55926 35.3406 7.67525 35.278 7.80035 35.2415C7.92546 35.205 8.05687 35.1952 8.18599 35.213H9.10898V37.423Z" fill="#F36F21"/>
<path d="M5.29199 43.2339V45.2509H14.87V47.004H8.01399V49.1909H10.214C10.3712 49.5632 10.4456 49.9651 10.432 50.3689V52.963C10.432 53.843 9.89699 54.2879 8.82199 54.2879C8.20777 54.2826 7.59628 54.2054 6.99999 54.0579V56.22C7.62281 56.3807 8.26378 56.4604 8.90699 56.457C9.94907 56.5231 10.9806 56.2153 11.816 55.5889C12.166 55.265 12.4389 54.8666 12.6145 54.4232C12.7902 53.9798 12.8642 53.5027 12.831 53.027V50.2449C12.8501 49.8429 12.7836 49.4414 12.636 49.067H14.865V57.4429H17.245V45.254H19.103V43.237H5.29199V43.2339Z" fill="#F36F21"/>
<path d="M6.83997 59.389V61.389H8.47796V67.824C8.44752 68.2462 8.5027 68.6702 8.64017 69.0706C8.77764 69.471 8.99458 69.8395 9.27797 70.154C9.98865 70.7401 10.9014 71.0231 11.819 70.942C12.3422 70.9427 12.863 70.8717 13.367 70.731V73.47H15.727V61.388H17.593V59.388L6.83997 59.389ZM13.36 68.629C12.9696 68.7556 12.5613 68.8184 12.151 68.815C11.29 68.815 10.857 68.454 10.857 67.731V61.386H13.357L13.36 68.629Z" fill="#F36F21"/>
<path d="M61.607 27.017L63.564 26.585L63.998 28.542C64.016 28.6223 64.0649 28.6922 64.1342 28.7366C64.2035 28.781 64.2876 28.7962 64.368 28.779L66.203 28.373C66.2832 28.355 66.3531 28.306 66.3971 28.2366C66.4412 28.1672 66.4559 28.0832 66.438 28.003L66.004 26.046L67.961 25.612C68.0413 25.594 68.1112 25.545 68.1554 25.4757C68.1996 25.4064 68.2146 25.3223 68.197 25.242L67.791 23.407C67.7823 23.3672 67.7657 23.3295 67.7424 23.296C67.719 23.2626 67.6893 23.2341 67.655 23.2122C67.6206 23.1903 67.5822 23.1754 67.5421 23.1683C67.502 23.1612 67.4608 23.1621 67.421 23.171L65.464 23.603L65.032 21.646C65.0141 21.5657 64.9651 21.4958 64.8958 21.4516C64.8264 21.4073 64.7424 21.3924 64.662 21.41L62.827 21.816C62.7468 21.8339 62.6769 21.8829 62.6326 21.9522C62.5884 22.0216 62.5734 22.1056 62.591 22.186L63.023 24.143L61.066 24.575C60.9858 24.5929 60.916 24.6419 60.8719 24.7113C60.8279 24.7807 60.8132 24.8647 60.831 24.945L61.237 26.78C61.2457 26.8198 61.2621 26.8576 61.2854 26.8911C61.3087 26.9246 61.3384 26.9531 61.3728 26.9751C61.4072 26.997 61.4457 27.0119 61.4859 27.0189C61.526 27.0259 61.5672 27.0249 61.607 27.016V27.017Z" fill="#ED2124"/>
<path d="M57.57 15.069L65.97 13.21C66.1397 13.1725 66.3003 13.1019 66.4427 13.0023C66.5851 12.9026 66.7065 12.7759 66.7999 12.6294C66.8933 12.4829 66.957 12.3193 66.9872 12.1482C67.0174 11.9771 67.0136 11.8017 66.976 11.632L66.232 8.27098C66.1946 8.10123 66.1241 7.94052 66.0245 7.79806C65.9249 7.65559 65.7982 7.53416 65.6516 7.44072C65.5051 7.34728 65.3415 7.28366 65.1703 7.25351C64.9992 7.22335 64.8237 7.22725 64.654 7.26498L56.254 9.12398C56.0843 9.16139 55.9236 9.2319 55.7811 9.33149C55.6386 9.43107 55.5172 9.55778 55.4238 9.70435C55.3303 9.85092 55.2667 10.0145 55.2365 10.1857C55.2064 10.3569 55.2103 10.5323 55.248 10.702L55.992 14.063C56.0295 14.2327 56.1001 14.3933 56.1997 14.5357C56.2994 14.6781 56.4261 14.7995 56.5726 14.8929C56.7191 14.9863 56.8827 15.0499 57.0538 15.0802C57.2249 15.1104 57.4003 15.1066 57.57 15.069Z" fill="#026839"/>
<path d="M63.76 2.19897C60.6557 2.19949 57.602 2.98541 54.8831 4.48359C52.1642 5.98176 49.8685 8.14348 48.2098 10.7675C46.5511 13.3916 45.5833 16.3926 45.3964 19.4913C45.2095 22.59 45.8097 25.6856 47.141 28.49C46.1642 23.6879 46.6641 18.7025 48.575 14.19C49.8668 11.2273 51.9869 8.70076 54.6804 6.91431C57.3739 5.12786 60.5261 4.15752 63.758 4.11997C66.362 4.11779 68.9295 4.73266 71.25 5.91421C73.5705 7.09575 75.578 8.81033 77.108 10.9174C78.638 13.0245 79.6469 15.4642 80.0521 18.0365C80.4573 20.6088 80.2472 23.2405 79.439 25.7159C78.6309 28.1913 77.2477 30.44 75.4028 32.2777C73.5578 34.1153 71.3038 35.4897 68.8252 36.2881C66.3466 37.0866 63.7141 37.2863 61.1435 36.871C58.5728 36.4557 56.1371 35.4372 54.036 33.899C54.036 33.899 52.074 33.704 53.002 35.518C56.1601 37.7263 59.9069 38.9387 63.76 38.999C68.64 38.999 73.3201 37.0604 76.7708 33.6097C80.2214 30.1591 82.16 25.479 82.16 20.599C82.16 15.719 80.2214 11.0389 76.7708 7.58821C73.3201 4.13754 68.64 2.19897 63.76 2.19897Z" fill="#026839"/>
<path d="M56.762 21.816L70.162 18.852L72.267 28.372L58.867 31.336L56.762 21.816ZM75.003 30.126L71.757 15.457C71.217 13.013 69.85 12.142 67.406 12.682L56.654 15.06C54.21 15.6 53.339 16.967 53.879 19.411L57.079 33.862C60.0725 35.2446 63.4315 35.6279 66.6596 34.9552C69.8877 34.2824 72.8139 32.5893 75.006 30.126H75.003Z" fill="#026839"/>
<path d="M75.484 29.597C75.463 29.206 75.442 28.706 75.442 28.706C75.212 25.754 78.036 21.177 78.78 20.065C79.122 19.555 78.502 18.537 77.67 19.341C76.531 20.441 74.97 23.451 73.314 23.215C71.714 22.987 70.031 19.93 69.289 18.726C68.522 17.726 67.412 18.584 67.989 19.415C71.858 24.975 71.438 32.365 71.362 33.13C71.6832 32.9712 71.9851 32.7763 72.262 32.549C73.4672 31.7196 74.5507 30.726 75.481 29.597H75.484Z" fill="#2A419A"/>
<path d="M75.645 19.896C75.6656 20.2889 75.5693 20.679 75.3682 21.0171C75.167 21.3552 74.8702 21.6261 74.5151 21.7955C74.16 21.9649 73.7627 22.0251 73.3733 21.9687C72.984 21.9122 72.6201 21.7416 72.3278 21.4783C72.0354 21.2151 71.8277 20.871 71.7309 20.4897C71.6341 20.1084 71.6525 19.707 71.7839 19.3361C71.9153 18.9653 72.1536 18.6417 72.4689 18.4064C72.7842 18.1711 73.1621 18.0345 73.555 18.014C73.8159 18.0001 74.0769 18.0378 74.3232 18.1249C74.5695 18.212 74.7961 18.3468 74.9903 18.5216C75.1844 18.6964 75.3421 18.9078 75.4545 19.1436C75.5668 19.3794 75.6316 19.6351 75.645 19.896Z" fill="#2A419A"/>
<path d="M62.042 35.281C61.822 34.9 60.321 30.794 60.321 30.794C58.986 27.343 60.974 20.794 61.465 19.194C61.69 18.461 60.583 17.464 59.875 18.725C58.905 20.45 57.865 24.668 55.797 24.981C53.797 25.281 51.331 22.011 50.01 20.837C48.733 19.92 47.71 21.343 48.701 22.13C52.2522 25.0398 54.7883 29.0017 55.944 33.445C57.5195 34.3328 59.2509 34.9099 61.044 35.145C61.212 35.173 61.901 35.281 62.044 35.281H62.042Z" fill="#2A419A"/>
<path d="M57.398 20.17C57.5644 20.633 57.5898 21.1349 57.4709 21.6124C57.352 22.0898 57.0942 22.5212 56.73 22.8521C56.3658 23.1829 55.9118 23.3983 55.4252 23.471C54.9386 23.5437 54.4413 23.4705 53.9964 23.2605C53.5514 23.0506 53.1787 22.7134 52.9254 22.2915C52.6722 21.8697 52.5497 21.3823 52.5735 20.8908C52.5974 20.3994 52.7665 19.9261 53.0593 19.5308C53.3522 19.1355 53.7558 18.8359 54.219 18.67C54.8395 18.4475 55.5229 18.4805 56.1191 18.7618C56.7152 19.043 57.1753 19.5496 57.398 20.17Z" fill="#2A419A"/>
</g>
<defs>
<clipPath id="clip0_113_640">
<rect width="87.33" height="75.33" fill="white"/>
</clipPath>
</defs>
</svg>
